# xmcd
# Track frame offsets:
# 150
# 10285
# 24002
# 36645
# 50097
# 58800
# 77765
# 88420
# 95352
# 104550
# 115885
# 127282
# 140137
# 154362
# 169825
# 179927
# 191505
#
# Disc length: 2701 seconds
# Revision: 0
# Processed by: cddbd v1.4PL0 Copyright (c) Steve Scherf et al.
# Submitted via: VisiTrax 2.9.5.181 - For more info visit www.synapsa.com
#
DISCID=040a8b11
DTITLE=Hymn Time - Lost and Found
DYEAR=1993
DGENRE=Bluegrass
TTITLE0=Mount Up With Wings
TTITLE1=When Was The Last Time
TTITLE2=I'm Going To Make Heaven My Home
TTITLE3=Boat of Love
TTITLE4=Lay It On Jesus
TTITLE5=Sing An Old Fashioned Song
TTITLE6=Baptism Of Jesse Taylor
TTITLE7=When The Saints Go Marching In
TTITLE8=Come On Down
TTITLE9=Raging Storm
TTITLE10=Shall We Gather At The River
TTITLE11=You're Drifting Away
TTITLE12=Peace In The Valley
TTITLE13=What A Friend We Have In Jesus
TTITLE14=Don't Wait Too Late
TTITLE15=Give Me The Flowers While I'm Living
TTITLE16=Better Get Right With Jesus
EXTD=REB-CD-1668
EXTT0=
EXTT1=
EXTT2=
EXTT3=
EXTT4=
EXTT5=
EXTT6=
EXTT7=
EXTT8=
EXTT9=
EXTT10=
EXTT11=
EXTT12=
EXTT13=
EXTT14=
EXTT15=
EXTT16=
PLAYORDER=
